<?xml version="1.0" standalone="no"?>
<!DOCTYPE svg PUBLIC "-//W3C//DTD SVG 20010904//EN"
 "http://www.w3.org/TR/2001/REC-SVG-20010904/DTD/svg10.dtd">
<svg version="1.0" xmlns="http://www.w3.org/2000/svg"
 width="340.000000pt" height="340.000000pt" viewBox="0 0 340.000000 340.000000"
 preserveAspectRatio="xMidYMid meet">
<metadata>
Created by potrace 1.11, written by Peter Selinger 2001-2013
</metadata>
<g transform="translate(0.000000,340.000000) scale(0.100000,-0.100000)"
fill="#000000" stroke="none">
<path d="M366 3349 c-27 -27 -46 -53 -42 -56 3 -3 7 -4 9 -2 1 2 24 28 52 57
27 28 45 52 40 52 -6 0 -32 -23 -59 -51z"/>
<path d="M586 3335 c31 -35 60 -66 63 -67 19 -8 62 -79 55 -90 -6 -10 -3 -9 9
1 9 7 17 25 16 40 0 14 -3 20 -6 13 -3 -8 -38 21 -92 78 -101 104 -129 120
-45 25z"/>
<path d="M857 3357 c-39 -44 -36 -65 5 -24 51 53 62 67 47 66 -8 0 -31 -19
-52 -42z"/>
<path d="M1019 3383 c5 -10 19 -28 30 -40 12 -12 21 -26 21 -30 0 -5 9 -17 21
-26 14 -12 17 -22 11 -30 -5 -7 -5 -23 -1 -37 4 -16 7 -19 8 -7 1 9 5 17 11
17 5 0 7 -7 3 -16 -3 -8 4 -25 17 -39 19 -20 21 -27 11 -39 -11 -13 -9 -13 13
-3 13 6 21 14 18 17 -4 3 -8 13 -10 22 -2 14 2 13 24 -7 23 -21 28 -23 41 -10
15 15 33 12 33 -6 0 -6 -4 -8 -9 -5 -13 9 -30 -17 -26 -39 2 -11 4 -23 4 -27
1 -11 41 -10 41 0 0 4 -5 13 -12 20 -15 15 -4 15 25 1 21 -10 21 -9 -2 10 -13
12 -18 21 -13 21 6 0 14 -4 17 -10 9 -14 45 -13 45 2 0 6 3 9 6 5 8 -8 64 13
64 24 0 5 4 9 9 9 4 0 7 -11 6 -25 -2 -14 1 -25 6 -25 5 0 9 4 9 8 0 12 40 9
41 -3 3 -23 6 -51 7 -68 1 -10 6 -16 11 -12 5 3 16 -2 24 -10 19 -18 56 -20
61 -2 2 6 7 21 12 32 6 18 8 18 11 3 3 -12 14 -18 31 -18 15 0 41 -7 57 -16
17 -9 42 -23 58 -31 15 -8 27 -20 28 -26 0 -7 2 -22 3 -35 2 -15 -2 -21 -10
-18 -11 4 -11 2 -1 -14 6 -11 15 -20 20 -20 4 0 5 -4 2 -10 -3 -5 1 -10 11
-10 12 0 14 -3 6 -13 -8 -10 -5 -20 13 -41 13 -15 29 -25 35 -21 6 3 10 3 9
-2 -5 -22 14 -43 35 -38 11 2 15 2 9 -1 -21 -10 -14 -33 11 -40 14 -3 32 -14
41 -24 16 -18 16 -19 -9 -26 -19 -5 -26 -13 -26 -31 0 -19 3 -23 13 -16 6 6
22 12 33 15 17 4 20 2 17 -13 -3 -11 -1 -19 5 -19 7 0 4 -13 -6 -31 -13 -24
-14 -33 -4 -36 6 -3 10 -9 7 -14 -4 -5 2 -6 11 -2 15 5 16 1 10 -30 -5 -29 -2
-40 17 -61 l24 -26 21 23 c12 13 22 34 22 48 1 41 27 134 45 163 10 15 37 38
61 52 23 14 48 31 54 39 14 17 95 21 105 5 10 -16 25 -12 25 6 0 9 16 50 35
90 29 59 46 80 94 117 33 25 58 46 56 48 -2 2 6 5 18 6 12 1 60 8 106 15 72
10 87 10 110 -3 22 -13 31 -13 56 -3 17 7 41 14 55 14 23 1 23 2 5 10 -22 10
-14 12 48 14 23 1 36 -3 33 -9 -2 -7 19 -15 50 -21 59 -11 62 -5 6 12 -32 10
-34 12 -11 13 14 1 40 -6 57 -15 35 -17 53 -37 25 -28 -15 6 -15 4 2 -9 23
-18 39 -22 30 -7 -9 15 21 12 32 -2 6 -7 13 -27 16 -44 5 -26 2 -34 -16 -43
-19 -10 -20 -11 -2 -7 45 10 175 17 185 11 8 -5 2 -17 -15 -35 -15 -16 -26
-30 -25 -32 7 -9 -13 -48 -21 -42 -6 3 -5 12 3 22 11 15 11 15 -3 5 -14 -11
-12 -20 18 -80 18 -38 39 -93 47 -123 8 -30 15 -45 15 -34 1 12 -6 41 -14 64
-19 53 -19 62 0 30 13 -22 15 3 14 227 0 207 -3 251 -14 247 -8 -3 -16 4 -20
16 -15 47 -12 72 12 101 27 32 25 62 -4 53 -11 -4 -14 -3 -7 3 6 4 13 19 16
33 3 14 9 33 13 43 4 11 3 17 -5 17 -6 0 -14 -9 -17 -20 -4 -16 -8 -18 -19 -9
-11 9 -14 7 -15 -7 -1 -14 -3 -13 -8 5 -4 14 -12 26 -19 29 -13 4 -12 -24 3
-94 6 -25 2 -36 -20 -60 -17 -18 -25 -22 -21 -11 3 9 2 17 -2 17 -4 0 -8 9 -9
20 -2 22 13 28 19 8 3 -8 6 -9 11 -1 9 14 -13 40 -43 48 -21 7 -23 6 -13 -7
10 -11 8 -18 -8 -32 -20 -17 -21 -17 -14 3 3 10 2 22 -3 25 -5 3 -8 24 -7 46
2 39 1 40 -30 40 -23 0 -39 -9 -59 -30 -15 -17 -31 -28 -37 -25 -5 4 -8 2 -7
-3 2 -6 -14 -31 -36 -57 -35 -43 -40 -45 -55 -31 -12 13 -13 20 -4 34 9 15 7
21 -8 30 -20 13 -24 4 -20 -38 1 -11 -1 -11 -9 3 -6 9 -20 17 -30 17 -11 0
-20 7 -20 15 0 8 5 15 10 15 15 0 49 37 42 45 -4 3 0 10 8 15 9 6 -317 10
-867 10 l-883 -1 0 -21 c0 -16 -5 -19 -23 -16 -13 2 -29 -1 -35 -9 -15 -15
-42 -17 -42 -3 0 6 -5 10 -11 10 -5 0 -7 -6 -4 -12 4 -7 -7 2 -24 20 -34 35
-58 44 -42 15z m2148 -75 c-3 -7 -5 -2 -5 12 0 14 2 19 5 13 2 -7 2 -19 0 -25z
m-1727 -98 c0 -5 -2 -10 -4 -10 -3 0 -8 5 -11 10 -3 6 -1 10 4 10 6 0 11 -4
11 -10z m-190 -29 c0 -5 -7 -11 -15 -15 -9 -3 -15 0 -15 9 0 8 7 15 15 15 8 0
15 -4 15 -9z m2077 -13 c-3 -8 -6 -5 -6 6 -1 11 2 17 5 13 3 -3 4 -12 1 -19z
m3 -22 c0 -2 -7 -7 -16 -10 -8 -3 -12 -2 -9 4 6 10 25 14 25 6z m-1720 -52 c0
-8 -4 -14 -10 -14 -5 0 -10 9 -10 21 0 11 5 17 10 14 6 -3 10 -13 10 -21z
m1627 -36 c-3 -8 -6 -5 -6 6 -1 11 2 17 5 13 3 -3 4 -12 1 -19z m140 0 c-3 -8
-6 -5 -6 6 -1 11 2 17 5 13 3 -3 4 -12 1 -19z m-642 -39 c-38 -4 -83 -10 -100
-13 -22 -4 -25 -3 -10 4 33 14 118 25 150 20 21 -3 9 -6 -40 -11z m155 -3 c0
-2 -11 -6 -25 -8 -13 -3 -22 -1 -19 3 5 9 44 13 44 5z m460 -106 c0 -5 -5 -10
-11 -10 -5 0 -7 5 -4 10 3 6 8 10 11 10 2 0 4 -4 4 -10z m18 -196 c-3 -16 -7
-13 -21 13 -23 43 -21 52 4 26 12 -11 19 -29 17 -39z"/>
<path d="M80 3291 c47 -45 99 -91 115 -102 28 -20 -30 39 -120 120 -81 73 -78
61 5 -18z"/>
<path d="M890 3271 c0 -6 4 -13 10 -16 6 -3 7 1 4 9 -7 18 -14 21 -14 7z"/>
<path d="M1070 3199 c0 -11 4 -18 10 -14 5 3 7 12 3 20 -7 21 -13 19 -13 -6z"/>
<path d="M1113 3178 c4 -11 0 -18 -11 -21 -9 -3 -5 -4 11 -4 31 2 34 9 10 28
-15 12 -16 12 -10 -3z"/>
<path d="M660 3150 c-8 -14 -8 -26 -2 -32 6 -6 12 0 16 17 9 35 1 43 -14 15z"/>
<path d="M1460 3050 c0 -5 5 -10 10 -10 6 0 10 5 10 10 0 6 -4 10 -10 10 -5 0
-10 -4 -10 -10z"/>
<path d="M3296 2555 c-9 -26 -7 -32 5 -12 6 10 9 21 6 23 -2 3 -7 -2 -11 -11z"/>
<path d="M3266 2465 c-9 -26 -7 -32 5 -12 6 10 9 21 6 23 -2 3 -7 -2 -11 -11z"/>
<path d="M3165 2360 c-3 -5 -1 -10 4 -10 6 0 11 5 11 10 0 6 -2 10 -4 10 -3 0
-8 -4 -11 -10z"/>
<path d="M824 2288 c3 -15 26 -23 26 -8 0 6 -4 9 -9 6 -5 -4 -12 -1 -14 4 -3
6 -4 5 -3 -2z"/>
<path d="M1091 2266 c7 -15 17 -22 26 -19 11 5 11 9 -3 24 -24 26 -36 24 -23
-5z"/>
<path d="M2710 2255 c-7 -8 -16 -13 -20 -10 -11 7 -86 -62 -77 -71 4 -4 19 3
33 17 14 13 28 22 31 20 7 -5 53 37 53 49 0 14 -5 13 -20 -5z"/>
<path d="M1075 2230 c21 -24 26 -25 19 -6 -3 8 -13 17 -22 21 -13 5 -13 2 3
-15z"/>
<path d="M1373 2216 c0 -14 3 -26 8 -26 11 0 11 21 0 39 -6 9 -8 5 -8 -13z"/>
<path d="M590 2191 c0 -5 5 -13 10 -16 6 -3 10 -2 10 4 0 5 -4 13 -10 16 -5 3
-10 2 -10 -4z"/>
<path d="M2668 2179 c-38 -22 -11 -89 36 -89 47 0 63 57 24 84 -26 18 -36 19
-60 5z"/>
<path d="M1395 2160 c-3 -5 -1 -10 4 -10 6 0 11 5 11 10 0 6 -2 10 -4 10 -3 0
-8 -4 -11 -10z"/>
<path d="M3320 2145 c-32 -8 -62 -22 -72 -36 -16 -18 -22 -20 -41 -11 -24 11
-57 13 -57 2 0 -4 -25 -13 -56 -20 -50 -12 -58 -12 -85 4 -16 9 -34 14 -39 11
-6 -3 -10 2 -11 12 0 12 -2 13 -6 5 -3 -8 4 -22 16 -33 12 -11 21 -23 21 -26
0 -4 -5 -2 -12 5 -7 7 -15 12 -20 12 -4 0 4 -11 17 -25 32 -31 32 -55 0 -55
-13 0 -35 -5 -49 -11 -21 -10 -23 -14 -13 -30 17 -28 -6 -48 -34 -31 -19 12
-20 11 -14 -10 4 -13 14 -27 21 -31 24 -14 15 -27 -17 -27 -28 0 -30 -2 -18
-16 11 -14 11 -18 -4 -29 -17 -12 -17 -13 0 -19 17 -7 17 -8 0 -17 -14 -8 -15
-14 -7 -24 17 -21 -29 -48 -61 -37 -18 7 -28 4 -43 -11 -16 -17 -17 -19 -3
-14 9 3 17 3 17 -1 0 -4 14 -13 31 -19 21 -8 28 -16 23 -25 -6 -10 -5 -10 7
-2 8 6 39 12 69 13 65 1 110 10 127 23 7 5 18 8 25 6 7 -3 1 -12 -17 -23 -17
-11 -48 -34 -69 -52 -22 -18 -55 -36 -75 -39 -20 -4 -45 -13 -56 -20 -11 -8
-28 -14 -39 -14 -11 0 -28 -7 -38 -17 -14 -13 -18 -13 -18 -2 -1 9 -4 8 -11
-5 -10 -16 -19 -17 -68 -11 -69 9 -85 16 -138 68 -35 33 -50 41 -82 42 -21 0
-37 4 -34 9 3 5 2 7 -3 5 -5 -2 -60 -24 -121 -48 -80 -31 -110 -47 -106 -57 3
-8 0 -14 -7 -14 -6 0 -8 5 -5 10 7 11 -6 13 -29 4 -9 -3 -16 -11 -16 -18 0
-14 -51 -15 -67 0 -6 6 -43 14 -82 18 -77 8 -83 13 -95 79 -4 20 -11 37 -15
37 -4 0 -21 30 -36 68 -31 75 -80 168 -103 194 -8 10 -12 25 -8 35 7 16 6 16
-12 0 -18 -17 -20 -16 -36 8 -22 34 -41 32 -41 -4 -1 -21 3 -27 10 -21 7 6 11
2 12 -11 1 -10 -5 -19 -13 -19 -8 0 -14 -5 -14 -11 0 -5 -4 -8 -9 -5 -5 4 -11
1 -13 -5 -3 -10 -16 -5 -90 41 -15 9 -17 7 -12 -7 5 -16 4 -16 -10 1 -9 11
-16 23 -16 28 0 4 -11 8 -25 8 -14 0 -37 12 -51 26 -24 23 -25 26 -10 43 9 10
16 27 16 39 0 11 7 25 16 30 10 6 12 12 6 16 -5 3 -17 -6 -26 -19 -9 -14 -21
-23 -26 -20 -6 4 -10 0 -10 -7 0 -7 -7 0 -15 15 -10 20 -12 34 -5 46 7 13 5
18 -6 18 -8 0 -13 -6 -10 -14 3 -8 -2 -13 -14 -13 -11 0 -20 7 -20 16 0 24
-104 16 -108 -9 -4 -22 26 -59 41 -50 6 3 7 1 3 -6 -6 -9 -11 -9 -22 0 -11 9
-17 9 -28 0 -8 -7 -16 -8 -18 -4 -3 4 -4 3 -2 -3 1 -5 -7 -21 -17 -35 -18 -22
-20 -22 -18 -4 2 35 -1 46 -11 40 -5 -3 -7 0 -4 8 5 15 -21 31 -36 22 -5 -3
-11 -1 -15 5 -3 5 -13 10 -22 10 -9 0 -30 11 -47 24 -29 21 -121 42 -110 24 3
-5 11 -8 19 -8 7 0 15 -12 17 -27 2 -18 10 -29 23 -31 11 -3 28 -13 38 -23 17
-18 17 -19 -8 -19 -16 0 -25 6 -25 15 0 8 -4 15 -9 15 -5 0 -22 5 -38 11 -25
9 -26 11 -10 21 18 9 18 10 0 24 -10 7 -21 14 -25 14 -15 0 -8 -59 8 -74 11
-12 14 -25 9 -47 -5 -22 -3 -34 6 -40 10 -6 11 -9 2 -9 -8 0 -13 -15 -13 -40
0 -52 -23 -53 -76 -4 -23 22 -40 32 -42 25 -3 -8 -9 -5 -18 7 -7 11 -34 29
-59 41 -29 13 -49 31 -56 47 -7 19 -15 25 -29 21 -11 -3 -29 3 -41 14 -22 19
-39 17 -39 -4 0 -7 -8 -24 -17 -37 -10 -14 -16 -33 -15 -42 2 -10 -2 -27 -8
-38 -9 -17 -8 -25 4 -39 18 -20 21 -57 5 -66 -7 -5 -4 -14 7 -26 16 -17 16
-24 5 -55 -12 -33 -11 -37 8 -56 23 -21 21 -49 -4 -75 -11 -10 -15 -10 -24 1
-6 7 -7 17 -3 22 4 4 0 3 -9 -4 -14 -11 -18 -9 -23 13 -8 31 -19 32 -35 2 -14
-25 0 -109 18 -115 6 -2 11 -13 11 -25 0 -20 0 -20 15 -1 12 16 14 17 15 2 0
-9 22 -49 49 -90 27 -40 51 -82 53 -93 3 -22 122 -149 159 -170 13 -8 36 -19
51 -25 15 -7 34 -23 43 -37 12 -18 23 -23 38 -19 26 6 40 -4 90 -66 22 -28 50
-51 65 -54 15 -4 47 -19 72 -34 25 -15 76 -40 113 -56 86 -37 152 -99 196
-186 35 -70 53 -158 32 -158 -6 0 -16 -10 -22 -22 -9 -22 -9 -22 -4 2 15 63
16 99 5 120 -11 20 -14 21 -27 7 -13 -13 -19 -13 -41 -1 -25 13 -28 12 -40
-11 -7 -14 -17 -25 -23 -25 -6 0 -8 -9 -4 -22 6 -20 3 -19 -19 7 -14 17 -25
38 -26 48 0 9 -3 17 -8 17 -4 0 -15 18 -25 40 -12 28 -23 40 -37 40 -11 0 -20
4 -20 10 0 5 -6 7 -14 4 -9 -3 -12 -12 -9 -21 4 -11 2 -14 -5 -9 -7 4 -12 13
-12 19 0 18 -34 44 -49 39 -8 -3 -11 0 -8 5 3 5 -4 10 -15 10 -19 2 -19 1 -3
-17 10 -11 17 -31 17 -45 0 -15 7 -29 17 -33 19 -7 36 -31 36 -52 0 -8 11 -20
24 -26 13 -7 28 -22 35 -35 8 -16 23 -26 46 -29 49 -7 49 -32 1 -79 -23 -22
-41 -43 -41 -46 0 -10 40 -85 76 -140 l34 -55 -49 -102 c-27 -56 -47 -107 -44
-115 4 -11 203 -13 1129 -13 l1124 0 0 1080 c0 858 -3 1080 -12 1079 -7 0 -38
-7 -68 -14z m-154 -232 c-11 -11 -19 6 -11 24 8 17 8 17 12 0 3 -10 2 -21 -1
-24z m-2092 -5 c27 -11 68 -19 90 -20 44 0 86 -15 99 -36 5 -7 14 -9 20 -6 7
4 9 4 5 0 -4 -5 -3 -18 2 -31 7 -18 5 -24 -8 -27 -10 -3 -23 1 -30 9 -21 22
-41 15 -59 -22 -18 -39 -12 -55 13 -34 14 12 16 11 13 -6 -7 -32 -43 -26 -47
8 -2 15 -9 27 -16 27 -22 0 -84 63 -91 91 -5 20 -12 25 -25 22 -13 -3 -20 2
-25 19 -4 12 -13 27 -19 31 -12 10 1 5 78 -25z m2136 -48 c10 -18 8 -20 -20
-20 -28 0 -30 2 -20 20 6 11 15 20 20 20 5 0 14 -9 20 -20z m-67 -151 c4 -14
0 -16 -26 -8 -33 9 -60 29 -40 29 7 0 15 10 19 22 l6 21 19 -24 c10 -13 20
-31 22 -40z m-1603 -102 c0 -10 11 -28 25 -41 16 -15 20 -23 10 -23 -8 0 -15
4 -15 9 0 4 -5 8 -11 8 -6 0 -8 -12 -6 -29 4 -24 2 -28 -15 -23 -11 3 -24 -3
-33 -14 -8 -11 -14 -14 -15 -6 0 6 -5 12 -11 12 -5 0 -8 -4 -5 -8 3 -5 -1 -9
-9 -9 -8 0 -15 5 -15 11 0 7 -9 19 -20 29 -22 18 -26 37 -9 37 6 0 20 12 31
26 12 14 31 30 44 34 13 5 24 17 24 27 0 15 2 15 15 -3 8 -10 15 -27 15 -37z
m-124 29 c19 -20 18 -26 -8 -26 -20 0 -20 -1 -5 -12 15 -12 14 -15 -8 -41 -13
-15 -34 -28 -47 -30 -20 -2 -23 3 -26 35 -3 30 0 37 11 32 10 -3 17 4 21 21 5
18 12 25 21 21 8 -3 15 -1 15 4 0 14 9 12 26 -4z m967 -71 c-3 -9 -8 -14 -10
-11 -3 3 -2 9 2 15 9 16 15 13 8 -4z m27 -15 c0 -5 -2 -10 -4 -10 -3 0 -8 5
-11 10 -3 6 -1 10 4 10 6 0 11 -4 11 -10z m-1120 -30 c0 -5 -2 -10 -4 -10 -3
0 -8 5 -11 10 -3 6 -1 10 4 10 6 0 11 -4 11 -10z m960 -48 c0 -10 -81 -44 -88
-37 -4 3 63 38 86 44 1 1 2 -3 2 -7z m-290 -17 c7 -8 18 -15 25 -15 22 0 60
-39 48 -51 -7 -7 -24 -4 -56 10 -25 12 -49 21 -53 21 -8 0 -33 32 -34 43 0 13
57 7 70 -8z m-130 -35 c0 -5 -2 -10 -4 -10 -3 0 -8 5 -11 10 -3 6 -1 10 4 10
6 0 11 -4 11 -10z m185 -154 c18 -19 61 -49 93 -65 l60 -30 -8 -36 c-11 -51
-52 -109 -129 -185 -66 -65 -141 -118 -141 -100 0 6 -6 10 -13 10 -8 0 -19 11
-27 24 -7 14 -18 22 -26 19 -14 -5 -15 -1 -18 61 0 19 -4 32 -8 29 -15 -8 -8
58 8 82 9 13 13 28 10 33 -3 5 6 19 19 32 13 13 22 27 19 31 -3 5 -1 9 4 9 6
0 12 15 15 33 8 48 18 90 25 107 7 17 9 28 11 49 1 8 16 -3 36 -27 20 -22 51
-57 70 -76z m1151 -251 c-10 -8 -24 -16 -30 -18 -6 -2 -8 -7 -5 -11 4 -4 25 0
47 9 53 22 107 17 107 -9 0 -24 -71 -64 -86 -49 -7 7 0 14 20 23 17 7 31 16
31 21 0 13 -32 10 -60 -6 -35 -20 -89 -19 -97 2 -8 21 31 53 66 53 25 -1 25
-1 7 -15z m-128 -59 c15 -7 53 -19 85 -27 58 -12 75 -23 58 -33 -22 -14 -220
52 -204 68 10 10 32 7 61 -8z m27 -83 c30 -10 54 -22 52 -28 -2 -5 -11 -9 -21
-7 -9 2 -16 -4 -16 -12 0 -19 -61 -66 -87 -66 -10 0 -28 6 -38 14 -18 13 -18
14 4 45 12 17 27 31 32 31 5 0 9 5 9 10 0 19 -30 10 -65 -21 -36 -32 -54 -34
-38 -4 14 24 64 55 90 55 12 0 47 -8 78 -17z m-143 -130 c22 -20 23 -52 0 -78
-49 -58 -112 -71 -157 -32 -24 20 -25 25 -14 55 6 19 25 42 43 53 38 23 103
25 128 2z m-336 -155 c-25 -22 -44 -51 -56 -88 -16 -46 -19 -50 -20 -25 0 46
70 144 104 145 5 0 -8 -15 -28 -32z m194 -58 c0 -4 -13 -25 -29 -46 -59 -81
-112 -113 -146 -87 -19 14 -18 14 13 8 23 -5 40 -2 58 9 27 18 84 93 84 110 0
6 -14 17 -32 25 -29 13 -33 13 -49 -7 -9 -12 -21 -22 -25 -22 -4 0 5 13 20 29
l27 28 39 -20 c22 -10 40 -22 40 -27z m-213 -126 c-7 -7 -37 7 -37 17 0 6 9 5
21 -1 11 -7 19 -14 16 -16z m-67 -51 c0 -5 -13 -8 -29 -8 -16 0 -27 3 -24 8 2
4 15 7 29 7 13 0 24 -3 24 -7z m30 -23 c0 -5 -4 -10 -10 -10 -5 0 -10 5 -10
10 0 6 5 10 10 10 6 0 10 -4 10 -10z m-128 -54 c-2 -18 1 -37 7 -40 6 -4 11
-12 11 -17 0 -5 -9 -1 -20 9 -18 17 -21 47 -5 72 10 16 11 12 7 -24z m163 -13
c-22 -35 -56 -73 -65 -73 -4 0 8 16 26 36 19 19 34 42 34 50 0 8 5 14 11 14 7
0 4 -11 -6 -27z m-85 13 c0 -2 -8 -10 -17 -17 -16 -13 -17 -12 -4 4 13 16 21
21 21 13z m0 -82 c0 -2 -11 -3 -24 -2 -14 1 -23 5 -20 9 4 7 44 0 44 -7z
m-119 -177 c-10 -9 -11 -8 -5 6 3 10 9 15 12 12 3 -3 0 -11 -7 -18z"/>
<path d="M3002 830 c-26 -24 -28 -40 -6 -40 27 0 54 20 54 40 0 26 -20 25 -48
0z"/>
<path d="M2815 731 c-36 -15 -61 -50 -49 -69 18 -28 91 -28 120 -1 29 27 31
55 5 69 -23 12 -48 12 -76 1z"/>
<path d="M2867 2127 c3 -4 11 -6 19 -3 8 3 14 -1 14 -9 0 -8 9 -15 20 -15 25
0 26 15 3 26 -25 11 -63 12 -56 1z"/>
<path d="M2409 2073 c-13 -16 -12 -17 4 -4 9 7 17 15 17 17 0 8 -8 3 -21 -13z"/>
<path d="M2883 2083 c9 -2 23 -2 30 0 6 3 -1 5 -18 5 -16 0 -22 -2 -12 -5z"/>
<path d="M1481 2064 c0 -11 3 -14 6 -6 3 7 2 16 -1 19 -3 4 -6 -2 -5 -13z"/>
<path d="M2086 2057 c3 -10 9 -15 12 -12 3 3 0 11 -7 18 -10 9 -11 8 -5 -6z"/>
<path d="M760 1979 c-14 -13 -18 -20 -9 -16 11 4 20 -3 28 -19 7 -16 16 -22
24 -18 6 4 9 4 5 -1 -8 -9 9 -35 22 -35 13 0 -1 43 -20 65 -10 11 -19 26 -21
33 -3 10 -11 7 -29 -9z"/>
<path d="M2045 1990 c3 -5 13 -10 21 -10 8 0 14 5 14 10 0 6 -9 10 -21 10 -11
0 -17 -4 -14 -10z"/>
<path d="M2772 1978 c-1 -11 -8 -15 -17 -12 -9 4 -16 -2 -19 -18 -20 -99 -12
-121 24 -62 14 25 20 49 17 73 -2 20 -4 28 -5 19z"/>
<path d="M2511 1919 c-1 -24 6 -45 20 -60 19 -23 20 -23 10 -2 -6 12 -15 39
-20 60 l-9 38 -1 -36z"/>
<path d="M2563 1903 c-7 -2 -13 -10 -13 -17 0 -20 47 -58 67 -54 23 5 19 37
-9 61 -21 18 -25 19 -45 10z"/>
<path d="M2094 1870 c-10 -4 -18 -14 -20 -23 -1 -10 2 -15 7 -12 5 4 17 1 26
-4 16 -9 15 -11 -7 -12 l-25 -1 25 -8 c14 -4 21 -9 15 -9 -13 -2 36 -30 53
-31 15 0 61 -50 62 -67 0 -6 -9 -14 -20 -18 -11 -3 -28 -17 -38 -30 -14 -18
-22 -21 -31 -12 -7 7 -11 8 -11 0 0 -15 25 -24 36 -13 5 5 15 6 22 1 9 -5 5
-11 -13 -19 -31 -15 -65 -28 -88 -36 -16 -5 -16 -7 4 -30 17 -19 26 -23 43
-16 11 5 66 28 122 52 l101 43 -33 17 c-30 16 -37 16 -70 2 -20 -8 -39 -13
-42 -10 -3 3 11 13 32 21 l36 15 -47 60 c-32 40 -54 58 -66 56 -9 -2 -14 0
-11 5 3 5 3 27 -1 47 -6 39 -20 46 -61 32z m16 -310 c0 -5 -2 -10 -4 -10 -3 0
-8 5 -11 10 -3 6 -1 10 4 10 6 0 11 -4 11 -10z"/>
<path d="M377 1783 c-9 -8 22 -43 37 -43 6 0 17 9 24 20 7 12 8 20 2 20 -5 0
-10 -4 -10 -9 0 -5 -7 -12 -16 -15 -14 -5 -15 -4 -5 8 9 11 8 15 -5 20 -19 7
-19 7 -27 -1z"/>
<path d="M380 1726 c0 -2 8 -10 18 -17 15 -13 16 -12 3 4 -13 16 -21 21 -21
13z"/>
<path d="M2513 1713 c9 -2 23 -2 30 0 6 3 -1 5 -18 5 -16 0 -22 -2 -12 -5z"/>
<path d="M2458 1663 c7 -3 16 -2 19 1 4 3 -2 6 -13 5 -11 0 -14 -3 -6 -6z"/>
<path d="M2533 1663 c9 -2 25 -2 35 0 9 3 1 5 -18 5 -19 0 -27 -2 -17 -5z"/>
<path d="M2785 1609 c-4 -6 -5 -12 -2 -15 2 -3 7 2 10 11 7 17 1 20 -8 4z"/>
<path d="M2030 1590 c0 -5 7 -10 15 -10 8 0 15 5 15 10 0 6 -7 10 -15 10 -8 0
-15 -4 -15 -10z"/>
<path d="M211 811 c-12 -8 -12 -14 -3 -33 10 -20 12 -20 9 -3 -1 11 4 25 13
32 17 14 2 17 -19 4z"/>
<path d="M255 790 c-3 -5 -1 -10 4 -10 6 0 11 5 11 10 0 6 -2 10 -4 10 -3 0
-8 -4 -11 -10z"/>
<path d="M900 766 c0 -9 -8 -20 -17 -23 -15 -6 -15 -7 3 -14 18 -7 18 -8 0 -8
-15 -1 -17 -8 -14 -46 2 -33 0 -44 -9 -40 -7 2 -13 -2 -13 -11 0 -14 14 -23
42 -28 7 -1 18 -5 25 -9 6 -4 25 -6 42 -5 37 3 48 39 20 64 -11 10 -19 31 -19
48 0 22 -9 40 -30 59 -23 22 -30 25 -30 13z"/>
<path d="M685 650 c3 -5 11 -10 16 -10 6 0 7 5 4 10 -3 6 -11 10 -16 10 -6 0
-7 -4 -4 -10z"/>
<path d="M810 646 c0 -9 5 -16 10 -16 6 0 10 4 10 9 0 6 -4 13 -10 16 -5 3
-10 -1 -10 -9z"/>
</g>
</svg>
